<svg version="1.1" id="svg2" xmlns="http://www.w3.org/2000/svg" x="0" y="0" width="50" height="50" style="enable-background:new 0 0 50 50" xml:space="preserve"><style>.st0{fill:#016fd0}.st1{fill:#fff}</style><path id="path3078" class="st0" d="M0 0h50v27l-2.5 3.9 2.5 3.4V50H0V24.6l1.5-1.8L0 21.1V0z"/><path id="path3080" class="st1" d="m0 21.1 1.9-4.4h3.2l1.1 2.4v-2.4h4l.6 1.8.6-1.8h18v.9s.9-.9 2.5-.9h5.9l1 2.4v-2.4h3.4l.9 1.4v-1.4h3.4v7.8h-3.4l-.9-1.4v1.4h-4.9l-.5-1.2h-1.3l-.5 1.3h-3.4c-1.3 0-2.2-.9-2.2-.9v.9h-5.1l-1-1.2v1.2H4.6l-.5-1.2H2.8l-.5 1.2H0v-3.5z"/><path id="path3046" class="st0" d="M2.5 17.7 0 23.6h1.6l.5-1.2h2.7l.5 1.2H7l-2.5-5.9h-2zm1 1.4.8 2.1H2.6l.9-2.1z"/><path id="path3048" class="st0" d="M7.1 23.6v-5.9h2.3l1.4 3.8 1.3-3.8h2.3v5.9H13v-4.3l-1.6 4.3h-1.3l-1.6-4.3v4.3H7.1z"/><path id="path3050" class="st0" d="M15.5 23.6v-5.9h4.8V19H17v1h3.2v1.2H17v1h3.3v1.3l-4.8.1z"/><path id="path3052" class="st0" d="M21.1 17.7v5.9h1.5v-2.1h.6l1.8 2.1h1.8l-1.9-2.2c.8-.1 1.6-.7 1.6-1.8 0-1.2-1-1.9-2-1.9h-3.4zm1.5 1.3h1.7c.4 0 .7.3.7.6 0 .4-.4.6-.7.6h-1.7V19z"/><path id="path3054" class="st0" d="M28.5 23.6H27v-5.9h1.5v5.9z"/><path id="path3056" class="st0" d="M32.1 23.6h-.3c-1.6 0-2.5-1.2-2.5-2.9s.9-3 2.9-3h1.6v1.4h-1.7c-.8 0-1.4.6-1.4 1.6 0 1.1.6 1.6 1.6 1.6h.4l-.6 1.3z"/><path id="path3058" class="st0" d="m35.2 17.7-2.5 5.9h1.6l.5-1.2h2.7l.5 1.2h1.7l-2.5-5.9h-2zm1 1.4.8 2.1h-1.7l.9-2.1z"/><path id="path3060" class="st0" d="M39.8 23.6v-5.9h1.9l2.4 3.7v-3.7h1.5v5.9h-1.8l-2.4-3.8v3.8h-1.6z"/><g><path id="path3082" class="st1" d="M9.7 34.8V27H18l.9 1.2.9-1.2h30.1v7.3s-.8.5-1.7.5H31.5l-1-1.2v1.2h-3.3v-2.1s-.4.3-1.4.3h-1.1v1.8h-5l-.9-1.2-.9 1.2H9.7z"/><path id="path3062" class="st0" d="M10.7 33.8V28h4.8v1.3h-3.3v1h3.2v1.2h-3.2v1h3.3v1.3h-4.8z"/><path id="path3066" class="st0" d="m15.7 33.8 2.3-2.9-2.4-3h1.8l1.4 1.8 1.4-1.8H22l-2.4 2.9 2.3 2.9h-1.8L18.8 32l-1.3 1.8h-1.8z"/><path id="path3068" class="st0" d="M22.2 28v5.9h1.5V32h1.5c1.3 0 2.3-.7 2.3-2 0-1.1-.8-2-2.1-2h-3.2zm1.5 1.3h1.6c.4 0 .7.3.7.7 0 .4-.3.7-.7.7h-1.6v-1.4z"/><path id="path3072" class="st0" d="M28.2 28v5.9h1.5v-2.1h.6l1.8 2.1h1.8L32 31.7c.8-.1 1.6-.7 1.6-1.8 0-1.2-1-1.9-2-1.9h-3.4zm1.5 1.3h1.7c.4 0 .7.3.7.6 0 .4-.4.6-.7.6h-1.7v-1.2z"/><path id="path3064" class="st0" d="M34.1 33.8V28h4.8v1.3h-3.3v1h3.2v1.2h-3.2v1h3.3v1.3h-4.8z"/><path id="path3074" class="st0" d="M39.6 33.8v-1.3h2.9c.4 0 .6-.2.6-.5 0-.2-.2-.5-.6-.5h-1.3c-1.2 0-1.8-.7-1.8-1.8 0-.9.6-1.8 2.3-1.8h2.9l-.6 1.3h-2.5c-.5 0-.6.2-.6.5 0 .2.2.5.5.5h1.4c1.3 0 1.8.7 1.8 1.7s-.6 1.9-1.9 1.9h-3.1z"/><path id="path3076" class="st0" d="M45 33.8v-1.3h2.9c.4 0 .6-.2.6-.5 0-.2-.2-.5-.6-.5h-1.3c-1.2 0-1.8-.7-1.8-1.8 0-.9.6-1.8 2.3-1.8H50l-.6 1.3h-2.5c-.5 0-.6.2-.6.5 0 .2.2.5.5.5h1.4c1.3 0 1.8.7 1.8 1.7s-.6 1.9-1.9 1.9H45z"/></g></svg>