<?xml version="1.0" encoding="utf-8"?>
<!-- Generator: Adobe Illustrator 24.0.2, SVG Export Plug-In . SVG Version: 6.00 Build 0)  -->
<svg version="1.1" id="Layer_1" xmlns="http://www.w3.org/2000/svg" xmlns:xlink="http://www.w3.org/1999/xlink" x="0px" y="0px"
	 width="20px" height="20px" viewBox="0 0 20 20" style="enable-background:new 0 0 20 20;" xml:space="preserve">
<style type="text/css">
	.st0{fill:#FFFFFF;}
</style>
<path class="st0" d="M17.4,0.5l-5.6,5.6l0,0l-1.7,1.7L8.5,6.3L8.1,5.8L2.6,0.3C2-0.1,1.1-0.1,0.5,0.5s-0.6,1.5,0,2.1L5.8,8l0.5,0.5
	l1.5,1.5l-1.5,1.5l-0.5,0.5l-5.3,5.5c-0.6,0.6-0.6,1.5,0,2.1c0.6,0.6,1.5,0.6,2.1,0l5.5-5.5l0.3-0.5l1.5-1.5l1.5,1.5l0,0l6,5.9
	c0.6,0.6,1.5,0.6,2.1,0c0.6-0.6,0.6-1.5,0-2.1l-5.6-5.6l0,0l-1.8-1.8l1.5-1.5l0,0l6-5.9c0.6-0.6,0.6-1.5,0-2.1
	C18.9-0.1,17.9-0.1,17.4,0.5z"/>
</svg>
