<?xml version="1.0" encoding="utf-8"?>
<!-- Generator: Adobe Illustrator 26.0.1, SVG Export Plug-In . SVG Version: 6.00 Build 0)  -->
<svg version="1.1" id="Layer_1" xmlns="http://www.w3.org/2000/svg" xmlns:xlink="http://www.w3.org/1999/xlink" x="0px" y="0px"
	 width="20px" height="20px" viewBox="0 0 20 20" style="enable-background:new 0 0 20 20;" xml:space="preserve">
<style type="text/css">
	.st0{fill:#D70F28;}
</style>
<g>
	<g>
		<path class="st0" d="M10,20c-4.39,0-7.7-3.14-7.7-7.31c0-2.5,1.66-4.54,3.27-6.51c1.47-1.81,2.87-3.52,2.87-5.38
			c0-0.31,0.18-0.59,0.46-0.72C9.19-0.06,9.52-0.01,9.75,0.2c0.18,0.16,3.9,3.5,3.93,7.32c0.46-0.47,0.92-1.1,0.93-1.11
			c0.16-0.21,0.4-0.33,0.68-0.32c0.26,0.01,0.5,0.16,0.64,0.39c1.18,2.03,1.78,3.99,1.78,5.82c0,2.06-0.8,3.99-2.25,5.44
			C13.99,19.2,12.05,20,10,20z M9.76,2.47C9.24,4.18,8,5.69,6.8,7.17c-1.5,1.84-2.92,3.58-2.92,5.52c0,3.27,2.63,5.74,6.12,5.74
			c1.61,0,3.19-0.65,4.33-1.79c1.16-1.16,1.79-2.69,1.79-4.33c0-1.25-0.34-2.6-1.02-4.01c-0.19,0.21-0.39,0.43-0.59,0.61
			c-0.66,0.6-1.55,1.03-1.59,1.04c-0.29,0.13-0.63,0.08-0.87-0.13c-0.24-0.22-0.32-0.55-0.21-0.85C12.76,6.52,10.99,3.9,9.76,2.47z"
			/>
	</g>
	<g>
		<path class="st0" d="M10.25,20c-1.81,0-3.35-1.59-3.35-3.48c0-2.92,3.06-5.04,3.19-5.13c0.26-0.17,0.59-0.18,0.86-0.02
			c0.26,0.16,0.41,0.47,0.36,0.78c-0.1,0.7,0.31,1.23,1,2.01c0.6,0.68,1.28,1.46,1.28,2.51C13.6,18.54,12.13,20,10.25,20z
			 M9.98,13.56c-0.7,0.71-1.5,1.78-1.5,2.96c0,1.01,0.83,1.9,1.77,1.9c1.03,0,1.77-0.74,1.77-1.75c0-0.46-0.41-0.93-0.89-1.47
			C10.73,14.74,10.26,14.21,9.98,13.56z"/>
	</g>
</g>
</svg>
