<svg width="28" height="28" fill="none" xmlns="http://www.w3.org/2000/svg"><path d="M27.904 8.226c-.066-1.486-.306-2.509-.65-3.394a6.829 6.829 0 0 0-1.619-2.482A6.887 6.887 0 0 0 23.16.738c-.89-.344-1.907-.585-3.394-.65C18.267.016 17.792 0 13.993 0c-3.799 0-4.274.016-5.767.082-1.486.066-2.509.306-3.394.65A6.827 6.827 0 0 0 2.35 2.35 6.889 6.889 0 0 0 .738 4.827c-.344.89-.585 1.907-.65 3.394C.016 9.719 0 10.194 0 13.993c0 3.799.016 4.274.082 5.766.066 1.487.306 2.51.65 3.395a6.9 6.9 0 0 0 1.618 2.482c.7.71 1.547 1.262 2.477 1.612.89.344 1.907.585 3.394.65 1.492.066 1.968.082 5.767.082 3.798 0 4.274-.016 5.766-.082 1.487-.065 2.509-.306 3.394-.65a7.157 7.157 0 0 0 4.095-4.094c.344-.891.584-1.908.65-3.395.066-1.492.082-1.967.082-5.766s-.006-4.274-.071-5.767Zm-2.52 11.424c-.06 1.367-.29 2.105-.48 2.597a4.642 4.642 0 0 1-2.657 2.656c-.492.191-1.236.42-2.597.48-1.476.067-1.918.083-5.651.083-3.734 0-4.182-.016-5.652-.082-1.367-.06-2.105-.29-2.597-.48a4.306 4.306 0 0 1-1.607-1.045A4.35 4.35 0 0 1 3.1 22.252c-.191-.492-.42-1.235-.48-2.596-.066-1.476-.083-1.919-.083-5.652s.017-4.182.082-5.652c.06-1.366.29-2.104.481-2.596a4.253 4.253 0 0 1 1.05-1.607c.453-.465 1-.82 1.607-1.044.492-.192 1.235-.421 2.596-.481 1.476-.066 1.919-.082 5.652-.082 3.739 0 4.181.016 5.652.082 1.366.06 2.104.29 2.596.48.607.225 1.159.58 1.607 1.045.465.453.82 1 1.044 1.607.191.492.42 1.235.481 2.596.066 1.476.082 1.918.082 5.652 0 3.733-.016 4.17-.082 5.646Z" fill="#fff"/><path d="M13.993 6.805a7.19 7.19 0 0 0-7.188 7.188 7.19 7.19 0 0 0 7.188 7.188 7.19 7.19 0 0 0 7.187-7.188 7.19 7.19 0 0 0-7.187-7.188Zm0 11.85a4.663 4.663 0 1 1 .001-9.326 4.663 4.663 0 0 1-.001 9.326ZM23.143 6.521a1.678 1.678 0 1 1-3.357 0 1.678 1.678 0 0 1 3.357 0Z" fill="#fff"/></svg>