<svg version="1.1" id="Layer_1" xmlns="http://www.w3.org/2000/svg" x="0" y="0" width="50" height="39" style="enable-background:new 0 0 50 39" xml:space="preserve"><style>.st0{fill:#5d5d5c}.st3{fill:#f79e1b}</style><path class="st0" d="M47.6 38.8V33h-.9v2.2c-.3-.4-.8-.6-1.3-.6-1.2 0-2.2 1-2.2 2.2 0 1.2 1 2.2 2.2 2.2.5 0 1-.2 1.3-.6v.5c0-.1.9-.1.9-.1zm-2.1-.8c-.3 0-.7-.1-.9-.4s-.4-.6-.3-.9c0-.7.6-1.2 1.3-1.2.7 0 1.2.6 1.2 1.3-.1.7-.6 1.2-1.3 1.2zM49 38.6l.2.1h.1l-.1-.1h.1v-.2H49v.4-.2zm0-.1h.1-.1z"/><path class="st0" d="m48.8 38.3-.1.1v.3c.1.2.2.2.4.2h.2c.1 0 .1 0 .1-.1s.1-.1.1-.1v-.3s0-.1-.1-.1-.1-.1-.1-.1h-.4c-.1 0-.1.1-.1.1zm.3 0h.1s.1 0 .1.1c.1.1.1.3 0 .4 0 0-.1 0-.1.1H49s-.1 0-.1-.1c-.1-.1-.1-.3 0-.4 0 0 .1 0 .1-.1h.1zM40.5 34.7v4.1h.9v-2.3c0-.7.3-1.1.9-1.1.2 0 .4 0 .6.1l.3-.9c-.2-.1-.4-.1-.6-.1-.4 0-.9.2-1.1.6v-.5l-1 .1zM16.8 38.1c-.5 0-1-.1-1.4-.4l-.4.7c.5.4 1.1.5 1.8.5 1.2 0 1.9-.6 1.9-1.3s-.5-1.1-1.4-1.2l-.4-.1c-.4 0-.7-.1-.7-.4 0-.3.3-.5.8-.5s.9.1 1.3.3l.4-.7c-.5-.3-1.1-.5-1.7-.4-1 0-1.7.5-1.7 1.3 0 .7.5 1.1 1.4 1.2l.4.1c.5.1.7.2.7.4-.1.3-.4.5-1 .5zM27.2 36.7c0-1.3-.8-2.2-2-2.2s-2.1 1-2.1 2.2c0 1.2 1 2.1 2.2 2.1.6 0 1.2-.2 1.7-.6l-.4-.7c-.3.3-.8.4-1.2.4-.6 0-1.2-.4-1.2-1h3v-.2zm-3.1-.3c0-.6.5-1 1.1-1 .3 0 .5.1.7.3.2.2.3.4.3.7h-2.1zM2.6 34.7v4.1h.9v-2.3c0-.3 0-.6.2-.8.2-.2.5-.3.8-.3.6 0 .9.4.9 1.1v2.3h.9v-2.3c0-.3.1-.6.2-.8.2-.2.5-.3.8-.3.6 0 .9.4.9 1.1v2.3h.9v-2.6c0-.4-.1-.9-.4-1.2-.3-.3-.7-.5-1.2-.5-.6 0-1.1.2-1.4.7-.3-.5-.8-.8-1.4-.7-.5 0-.9.2-1.2.6v-.5c0 .1-.9.1-.9.1zM14.1 38.8v-4.1h-.9v.5c-.3-.4-.8-.6-1.3-.6-1.2 0-2.2 1-2.2 2.2 0 1.2 1 2.2 2.1 2.2.5 0 1-.2 1.3-.6v.5c.1-.1 1-.1 1-.1zm-2-.8c-.4 0-.7-.1-.9-.4s-.4-.6-.3-.9c0-.7.6-1.2 1.3-1.2.7 0 1.2.6 1.2 1.3-.1.7-.7 1.2-1.3 1.2zM20.1 33.4v1.2h-.8v.8h.8v1.9c0 1 .4 1.5 1.4 1.5.4 0 .8-.1 1.1-.3l-.3-.8c-.2.1-.5.2-.8.2-.4 0-.6-.3-.6-.7v-1.9h1.5v-.8H21v-1.2l-.9.1zM28.1 34.7v4.1h.9v-2.3c0-.7.3-1.1.9-1.1.2 0 .4 0 .6.1l.3-.9c-.2-.1-.4-.1-.6-.1-.4 0-.9.2-1.1.6v-.5l-1 .1zM39.3 38.8v-4h-.9v.5c-.3-.4-.8-.6-1.3-.6-1.2 0-2.2 1-2.2 2.2 0 1.2 1 2.2 2.2 2.2.5 0 1-.2 1.3-.6v.5c0-.2.9-.2.9-.2zm-2.1-.8c-.3 0-.7-.1-.9-.4s-.3-.5-.3-.9c0-.7.6-1.2 1.3-1.2.7 0 1.2.6 1.2 1.3s-.6 1.2-1.3 1.2zM33.1 35.4c.4 0 .8.1 1.1.4l.4-.7c-.4-.3-.9-.5-1.5-.5s-1.1.2-1.6.6-.6 1-.6 1.6c0 .6.2 1.2.6 1.6s1 .6 1.6.6c.5 0 1.1-.2 1.5-.5l-.4-.7c-.3.2-.7.4-1.1.4-.7-.1-1.2-.6-1.2-1.3 0-.9.5-1.4 1.2-1.5z"/><path style="fill:#ff5f00" d="M18.2 3.3h13.5v24.4H18.2z"/><path d="M25 3.3C18.7-1.7 9.6-.9 4.1 5c-5.5 5.9-5.5 15.1 0 21s14.6 6.7 20.9 1.7c-3.7-2.9-5.9-7.4-5.9-12.2 0-4.8 2.2-9.3 5.9-12.2z" style="fill:#eb001b"/><path class="st3" d="M25 27.7c4.6 3.7 11 4.3 16.3 1.8s8.7-8 8.7-13.9-3.4-11.3-8.7-13.9S29.6-.3 25 3.3c3.7 2.9 5.9 7.4 5.9 12.2 0 4.7-2.2 9.2-5.9 12.2z"/><g><path class="st3" d="M48.5 25.7v-1h.2v-.2h-.5v.2h.2v1zM49.5 25.7v-1.2h-.1l-.2.9-.2-.9h-.1v1.2h.1v-.9l.1.8h.2l.1-.8v.9z"/></g></svg>