<?xml version="1.0" encoding="utf-8"?>
<!-- Generator: Adobe Illustrator 26.0.1, SVG Export Plug-In . SVG Version: 6.00 Build 0)  -->
<svg version="1.1" id="Layer_1" xmlns="http://www.w3.org/2000/svg" xmlns:xlink="http://www.w3.org/1999/xlink" x="0px" y="0px"
	 viewBox="0 0 20 20" style="enable-background:new 0 0 20 20;" xml:space="preserve">
<style type="text/css">
	.st0{fill:#FFFFFF;}
	.st1{fill:#010202;}
</style>
<g>
	<circle class="st0" cx="10" cy="8.33" r="6.67"/>
	<path class="st1" d="M10.37,9.15l0.26-1.73h1.35l-0.26,1.73H10.37z"/>
	<path class="st1" d="M7.11,6.79L7.38,5h3.19l-0.78,5.14h1.27l-0.27,1.79H6.33l0.27-1.79h1.27l0.51-3.35H7.11z"/>
	<path class="st1" d="M10.72,6.73L10.99,5h2.5l-0.27,1.73H10.72z"/>
	<path class="st1" d="M10,0C5.4,0,1.67,3.66,1.67,8.18C1.67,12.77,5.31,15.9,10,20c4.69-4.1,8.33-7.23,8.33-11.82
		C18.33,3.66,14.6,0,10,0z M10,15c-3.68,0-6.67-2.98-6.67-6.67S6.32,1.67,10,1.67s6.67,2.99,6.67,6.67S13.68,15,10,15z"/>
</g>
</svg>
