<svg width="35" height="29" fill="none" xmlns="http://www.w3.org/2000/svg"><path d="M35 3.7a15.143 15.143 0 0 1-4.134 1.116A7.046 7.046 0 0 0 34.022.911a14.476 14.476 0 0 1-4.55 1.71A7.243 7.243 0 0 0 24.231.386c-3.973 0-7.17 3.175-7.17 7.067 0 .56.047 1.098.166 1.61a20.416 20.416 0 0 1-14.79-7.39 7.03 7.03 0 0 0-.982 3.572c0 2.447 1.28 4.616 3.187 5.871a7.172 7.172 0 0 1-3.242-.87v.078c0 3.433 2.487 6.284 5.749 6.941a7.264 7.264 0 0 1-1.881.233c-.46 0-.924-.026-1.359-.12a7.23 7.23 0 0 0 6.705 4.921 14.562 14.562 0 0 1-8.897 3.013c-.588 0-1.153-.026-1.717-.097 3.178 2.018 6.945 3.17 11.008 3.17 13.203 0 20.422-10.769 20.422-20.103 0-.313-.01-.614-.026-.913A14.194 14.194 0 0 0 35 3.7Z" fill="#fff"/></svg>