<svg version="1.1" id="Layer_1" xmlns="http://www.w3.org/2000/svg" x="0" y="0" width="50" height="32" style="enable-background:new 0 0 50 32" xml:space="preserve"><style>.st2{fill:#2b2964}</style><path style="fill:#fff" d="M0 0h50v32H0z"/><path style="fill:#f3b600" d="M0 27.39h50V32H0z"/><path class="st2" d="M0 0h50v4.61H0zM13.35 18.3l-1.34-7.33c-.16-.82-.78-1.29-1.47-1.29H5.11l-.08.37c1.11.25 2.38.65 3.14 1.08.47.26.6.49.76 1.11l2.54 10.11h3.37L20 9.69h-3.35l-3.3 8.61zM18.75 22.34h3.18l2.64-12.66h-3.19zM27.97 19.9c-1.6.03-2.53-.45-3.27-.8l-.58 2.78c.75.35 2.12.66 3.54.67 3.35 0 5.54-1.7 5.55-4.33.01-3.34-4.49-3.53-4.46-5.02.01-.45.43-.94 1.35-1.06.46-.06 1.72-.11 3.14.57l.56-2.69c-.77-.29-1.75-.56-2.98-.56-3.15 0-5.37 1.72-5.39 4.19-.02 1.82 1.58 2.84 2.79 3.45 1.24.62 1.66 1.02 1.65 1.57 0 .84-.98 1.21-1.9 1.23zM36.4 22.34l.66-1.89h4.09l.39 1.89h2.95L41.91 9.68h-2.72c-.61 0-1.13.37-1.36.93l-4.78 11.73h3.35zm3.26-9.24.96 4.76h-2.64l1.68-4.76z"/></svg>