<?xml version="1.0" encoding="utf-8"?>
<!-- Generator: Adobe Illustrator 26.0.1, SVG Export Plug-In . SVG Version: 6.00 Build 0)  -->
<svg version="1.1" id="Layer_1" xmlns="http://www.w3.org/2000/svg" xmlns:xlink="http://www.w3.org/1999/xlink" x="0px" y="0px"
	 viewBox="0 0 20 20" style="enable-background:new 0 0 20 20;" xml:space="preserve">
<style type="text/css">
	.st0{fill:#010202;}
</style>
<g>
	<path class="st0" d="M12.55,11.63c-0.99-0.23-1.92-0.43-1.47-1.28c1.36-2.57,0.36-3.95-1.08-3.95c-1.47,0-2.45,1.43-1.08,3.95
		c0.46,0.85-0.5,1.05-1.47,1.28c-0.89,0.21-0.92,0.65-0.92,1.42l0,0.29h6.93l0-0.28C13.47,12.28,13.44,11.84,12.55,11.63z"/>
	<path class="st0" d="M16.68,6.24c-0.92,1.06-0.9,2.46-0.4,3.77c0.46-0.62,1.17-1.17,2.35-1.42c0.54-0.85,0.54-1.85,0.29-2.83
		c-0.08-0.35-0.21-0.69-0.29-0.83C18,5.14,17.18,5.64,16.68,6.24z"/>
	<path class="st0" d="M15.58,7.57c0.17-0.94,0.69-1.65,1.44-2.21c0.04-0.21,0.08-0.44,0.08-0.67c0-1.6-1.46-2.92-1.46-2.92
		S14.18,3.1,14.18,4.7C14.18,6.14,15.33,7.32,15.58,7.57z"/>
	<path class="st0" d="M12.52,16.78c1.81,2.02,4.21,1.81,5.83,0C16.68,14.92,14.27,14.82,12.52,16.78z"/>
	<path class="st0" d="M16.23,13.01C16.35,13.01,16.35,13.01,16.23,13.01c-0.54,0.35-1.15,1.06-1.54,1.98c1-0.23,1.92,0,2.79,0.54
		c1.21-0.31,2.15-1.5,2.52-2.58C18.89,12.45,17.33,12.24,16.23,13.01z"/>
	<path class="st0" d="M15.87,12.76c0.85-0.65,1.83-0.79,2.89-0.6c1.46-1.19,1.21-3.6,1.23-3.27C17.35,8.89,15.93,10.2,15.87,12.76z"
		/>
	<path class="st0" d="M3.31,6.24c0.92,1.06,0.9,2.46,0.4,3.77C3.25,9.39,2.54,8.84,1.36,8.59C0.84,7.74,0.84,6.74,1.09,5.76
		c0.08-0.35,0.21-0.69,0.29-0.83C2,5.14,2.81,5.64,3.31,6.24z"/>
	<path class="st0" d="M4.42,7.57C4.25,6.64,3.73,5.93,2.98,5.37C2.94,5.16,2.9,4.93,2.9,4.7c0-1.6,1.46-2.92,1.46-2.92
		S5.81,3.1,5.81,4.7C5.81,6.14,4.67,7.32,4.42,7.57z"/>
	<path class="st0" d="M7.48,16.78c-1.81,2.02-4.21,1.81-5.83,0C3.31,14.92,5.73,14.82,7.48,16.78z"/>
	<path class="st0" d="M3.77,13.01C3.65,13.01,3.65,13.01,3.77,13.01c0.54,0.35,1.15,1.06,1.54,1.98c-1-0.23-1.92,0-2.79,0.54
		C1.31,15.24,0.4,14.03,0,12.95C1.11,12.45,2.67,12.24,3.77,13.01z"/>
	<path class="st0" d="M4.13,12.76c-0.85-0.65-1.83-0.79-2.89-0.6C-0.21,10.97,0.02,8.55,0,8.89C2.65,8.89,4.06,10.2,4.13,12.76z"/>
</g>
</svg>
